<mxfile host="app.diagrams.net" modified="2024-04-21T20:44:51.704Z" agent="Mozilla/5.0 (Windows NT 10.0; Win64; x64) AppleWebKit/537.36 (KHTML, like Gecko) Chrome/124.0.0.0 Safari/537.36 Edg/124.0.0.0" etag="TgBIxJSvImsTfgISXpHP" version="24.2.5" type="device">
  <diagram name="Página-1" id="lYnjCvul8JdPS-wFxLd-">
    <mxGraphModel dx="1899" dy="481" grid="1" gridSize="10" guides="1" tooltips="1" connect="1" arrows="1" fold="1" page="1" pageScale="1" pageWidth="827" pageHeight="1169" math="0" shadow="0">
      <root>
        <mxCell id="0" />
        <mxCell id="1" parent="0" />
        <mxCell id="LDTHGyRp6urIsWSvvcYh-7" value="&lt;p style=&quot;margin:0px;margin-top:4px;text-align:center;&quot;&gt;&lt;b&gt;Estudiante&lt;/b&gt;&lt;/p&gt;&lt;hr size=&quot;1&quot; style=&quot;border-style:solid;&quot;&gt;&lt;p style=&quot;margin:0px;margin-left:4px;&quot;&gt;- id_estudiante: int&lt;/p&gt;&lt;p style=&quot;margin:0px;margin-left:4px;&quot;&gt;- nombre: String&lt;/p&gt;&lt;p style=&quot;margin:0px;margin-left:4px;&quot;&gt;- apellido: String&lt;/p&gt;&lt;hr size=&quot;1&quot; style=&quot;border-style:solid;&quot;&gt;&lt;p style=&quot;margin:0px;margin-left:4px;&quot;&gt;+ Estudiante(id_estudiante: int,&amp;nbsp;&lt;span style=&quot;background-color: initial;&quot;&gt;nombre: String, apellido: String)&lt;/span&gt;&lt;/p&gt;&lt;p style=&quot;margin:0px;margin-left:4px;&quot;&gt;+ getNombre(): String&lt;/p&gt;&lt;p style=&quot;margin:0px;margin-left:4px;&quot;&gt;+ getApellido(): String&lt;/p&gt;&lt;p style=&quot;margin:0px;margin-left:4px;&quot;&gt;+ getIdEstudiante(): int&lt;/p&gt;&lt;p style=&quot;margin:0px;margin-left:4px;&quot;&gt;+ setNombre(nombre: String): void&lt;/p&gt;&lt;p style=&quot;margin:0px;margin-left:4px;&quot;&gt;+ setApellido(apellido: String): void&lt;/p&gt;&lt;p style=&quot;margin:0px;margin-left:4px;&quot;&gt;+ setIdEstudiante(estudiante: int): void&lt;/p&gt;" style="verticalAlign=top;align=left;overflow=fill;html=1;whiteSpace=wrap;" parent="1" vertex="1">
          <mxGeometry x="550" y="110" width="160" height="270" as="geometry" />
        </mxCell>
        <mxCell id="LDTHGyRp6urIsWSvvcYh-8" value="&lt;p style=&quot;margin:0px;margin-top:4px;text-align:center;&quot;&gt;&lt;b&gt;Materia&lt;/b&gt;&lt;/p&gt;&lt;hr size=&quot;1&quot; style=&quot;border-style:solid;&quot;&gt;&lt;p style=&quot;margin:0px;margin-left:4px;&quot;&gt;- id_materia: int&lt;/p&gt;&lt;p style=&quot;margin:0px;margin-left:4px;&quot;&gt;- nombre: String&lt;/p&gt;&lt;hr size=&quot;1&quot; style=&quot;border-style:solid;&quot;&gt;&lt;p style=&quot;margin:0px;margin-left:4px;&quot;&gt;+ Materia(id_materia: int, nombre: String)&lt;/p&gt;&lt;p style=&quot;margin:0px;margin-left:4px;&quot;&gt;+ getNombre(): String&lt;/p&gt;&lt;p style=&quot;margin:0px;margin-left:4px;&quot;&gt;+ getId_Materia(): int&lt;/p&gt;&lt;p style=&quot;margin:0px;margin-left:4px;&quot;&gt;+ setNombre(nombre: String): void&lt;/p&gt;&lt;p style=&quot;margin:0px;margin-left:4px;&quot;&gt;+ setId_Materia(materia: int): void&lt;/p&gt;" style="verticalAlign=top;align=left;overflow=fill;html=1;whiteSpace=wrap;" parent="1" vertex="1">
          <mxGeometry x="110" y="130" width="160" height="200" as="geometry" />
        </mxCell>
        <mxCell id="LDTHGyRp6urIsWSvvcYh-10" value="&lt;p style=&quot;margin:0px;margin-top:4px;text-align:center;&quot;&gt;&lt;b&gt;Notas&lt;/b&gt;&lt;/p&gt;&lt;hr size=&quot;1&quot; style=&quot;border-style:solid;&quot;&gt;&lt;p style=&quot;margin:0px;margin-left:4px;&quot;&gt;- estudiante: Estudiante&lt;/p&gt;&lt;p style=&quot;margin:0px;margin-left:4px;&quot;&gt;- materia: Materia&lt;/p&gt;&lt;p style=&quot;margin:0px;margin-left:4px;&quot;&gt;- nota: float&amp;nbsp;&lt;/p&gt;&lt;hr size=&quot;1&quot; style=&quot;border-style:solid;&quot;&gt;&lt;p style=&quot;margin:0px;margin-left:4px;&quot;&gt;+ Notas(estudiante: Estudiante, materia: Materia, nota: float)&lt;/p&gt;&lt;p style=&quot;margin:0px;margin-left:4px;&quot;&gt;+ getEstudiante(): Estudiante&lt;/p&gt;&lt;p style=&quot;margin:0px;margin-left:4px;&quot;&gt;+ getMateria(): Materia&lt;/p&gt;&lt;p style=&quot;margin:0px;margin-left:4px;&quot;&gt;+ getNota(): float&lt;/p&gt;&lt;p style=&quot;margin:0px;margin-left:4px;&quot;&gt;+ setEstudiante(estudiante: Estudiante): void&lt;/p&gt;&lt;p style=&quot;margin:0px;margin-left:4px;&quot;&gt;+ setMateria(materia: Materia): void&lt;/p&gt;&lt;p style=&quot;margin:0px;margin-left:4px;&quot;&gt;+ setNota(nota: float): void&lt;/p&gt;" style="verticalAlign=top;align=left;overflow=fill;html=1;whiteSpace=wrap;" parent="1" vertex="1">
          <mxGeometry x="340" y="330" width="160" height="250" as="geometry" />
        </mxCell>
        <mxCell id="LDTHGyRp6urIsWSvvcYh-13" value="&lt;b&gt;&lt;i&gt;&lt;u&gt;&lt;font style=&quot;font-size: 18px;&quot;&gt;DIAGRAMA DE CLASE - ESCUELITA&lt;/font&gt;&lt;/u&gt;&lt;/i&gt;&lt;/b&gt;" style="text;html=1;align=center;verticalAlign=middle;whiteSpace=wrap;rounded=0;" parent="1" vertex="1">
          <mxGeometry x="190" y="30" width="400" height="30" as="geometry" />
        </mxCell>
        <mxCell id="LDTHGyRp6urIsWSvvcYh-14" value="&lt;font style=&quot;font-size: 18px;&quot;&gt;&lt;b&gt;&lt;i&gt;&lt;u&gt;DIAGRAMA&amp;nbsp; ENTIDAD RELACIÓN - ESCUELITA&lt;/u&gt;&lt;/i&gt;&lt;/b&gt;&lt;/font&gt;" style="text;html=1;align=center;verticalAlign=middle;whiteSpace=wrap;rounded=0;" parent="1" vertex="1">
          <mxGeometry x="210" y="730" width="420" height="30" as="geometry" />
        </mxCell>
        <mxCell id="LDTHGyRp6urIsWSvvcYh-15" value="Estudiante" style="whiteSpace=wrap;html=1;align=center;" parent="1" vertex="1">
          <mxGeometry x="-5" y="903" width="100" height="40" as="geometry" />
        </mxCell>
        <mxCell id="LDTHGyRp6urIsWSvvcYh-16" value="nombreCompleto" style="ellipse;whiteSpace=wrap;html=1;align=center;" parent="1" vertex="1">
          <mxGeometry x="-102.5" y="978" width="100" height="30" as="geometry" />
        </mxCell>
        <mxCell id="LDTHGyRp6urIsWSvvcYh-18" value="id_estudiante" style="ellipse;whiteSpace=wrap;html=1;align=center;fontStyle=4;" parent="1" vertex="1">
          <mxGeometry x="-5" y="958" width="90" height="20" as="geometry" />
        </mxCell>
        <mxCell id="LDTHGyRp6urIsWSvvcYh-21" value="" style="endArrow=none;html=1;rounded=0;" parent="1" source="LDTHGyRp6urIsWSvvcYh-15" target="LDTHGyRp6urIsWSvvcYh-18" edge="1">
          <mxGeometry relative="1" as="geometry">
            <mxPoint x="110" y="1018" as="sourcePoint" />
            <mxPoint x="270" y="1018" as="targetPoint" />
          </mxGeometry>
        </mxCell>
        <mxCell id="LDTHGyRp6urIsWSvvcYh-22" value="" style="endArrow=none;html=1;rounded=0;" parent="1" source="LDTHGyRp6urIsWSvvcYh-15" target="LDTHGyRp6urIsWSvvcYh-16" edge="1">
          <mxGeometry relative="1" as="geometry">
            <mxPoint x="180" y="1038" as="sourcePoint" />
            <mxPoint x="340" y="1038" as="targetPoint" />
          </mxGeometry>
        </mxCell>
        <mxCell id="LDTHGyRp6urIsWSvvcYh-23" value="Materia" style="whiteSpace=wrap;html=1;align=center;" parent="1" vertex="1">
          <mxGeometry x="315" y="903" width="100" height="40" as="geometry" />
        </mxCell>
        <mxCell id="LDTHGyRp6urIsWSvvcYh-24" value="id_materia" style="ellipse;whiteSpace=wrap;html=1;align=center;fontStyle=4;" parent="1" vertex="1">
          <mxGeometry x="410" y="863" width="80" height="20" as="geometry" />
        </mxCell>
        <mxCell id="LDTHGyRp6urIsWSvvcYh-25" value="nombre" style="ellipse;whiteSpace=wrap;html=1;align=center;" parent="1" vertex="1">
          <mxGeometry x="327.5" y="833" width="70" height="20" as="geometry" />
        </mxCell>
        <mxCell id="LDTHGyRp6urIsWSvvcYh-26" value="" style="endArrow=none;html=1;rounded=0;" parent="1" source="LDTHGyRp6urIsWSvvcYh-25" target="LDTHGyRp6urIsWSvvcYh-23" edge="1">
          <mxGeometry relative="1" as="geometry">
            <mxPoint x="290" y="863" as="sourcePoint" />
            <mxPoint x="450" y="863" as="targetPoint" />
          </mxGeometry>
        </mxCell>
        <mxCell id="LDTHGyRp6urIsWSvvcYh-27" value="" style="endArrow=none;html=1;rounded=0;" parent="1" source="LDTHGyRp6urIsWSvvcYh-24" target="LDTHGyRp6urIsWSvvcYh-23" edge="1">
          <mxGeometry relative="1" as="geometry">
            <mxPoint x="290" y="863" as="sourcePoint" />
            <mxPoint x="450" y="863" as="targetPoint" />
          </mxGeometry>
        </mxCell>
        <mxCell id="LDTHGyRp6urIsWSvvcYh-28" value="Notas" style="whiteSpace=wrap;html=1;align=center;" parent="1" vertex="1">
          <mxGeometry x="657.5" y="903" width="100" height="40" as="geometry" />
        </mxCell>
        <mxCell id="LDTHGyRp6urIsWSvvcYh-29" value="id_nota" style="ellipse;whiteSpace=wrap;html=1;align=center;fontStyle=4;" parent="1" vertex="1">
          <mxGeometry x="742.5" y="963" width="80" height="20" as="geometry" />
        </mxCell>
        <mxCell id="LDTHGyRp6urIsWSvvcYh-30" value="puntaje" style="ellipse;whiteSpace=wrap;html=1;align=center;" parent="1" vertex="1">
          <mxGeometry x="607.5" y="963" width="70" height="20" as="geometry" />
        </mxCell>
        <mxCell id="LDTHGyRp6urIsWSvvcYh-32" value="FechaNacimiento" style="ellipse;whiteSpace=wrap;html=1;align=center;" parent="1" vertex="1">
          <mxGeometry x="80" y="983" width="110" height="30" as="geometry" />
        </mxCell>
        <mxCell id="LDTHGyRp6urIsWSvvcYh-36" value="" style="endArrow=none;html=1;rounded=0;" parent="1" source="LDTHGyRp6urIsWSvvcYh-28" target="LDTHGyRp6urIsWSvvcYh-29" edge="1">
          <mxGeometry relative="1" as="geometry">
            <mxPoint x="342.5" y="863" as="sourcePoint" />
            <mxPoint x="502.5" y="863" as="targetPoint" />
          </mxGeometry>
        </mxCell>
        <mxCell id="LDTHGyRp6urIsWSvvcYh-37" value="" style="endArrow=none;html=1;rounded=0;" parent="1" source="LDTHGyRp6urIsWSvvcYh-28" target="LDTHGyRp6urIsWSvvcYh-30" edge="1">
          <mxGeometry relative="1" as="geometry">
            <mxPoint x="342.5" y="863" as="sourcePoint" />
            <mxPoint x="502.5" y="863" as="targetPoint" />
          </mxGeometry>
        </mxCell>
        <mxCell id="LDTHGyRp6urIsWSvvcYh-39" value="" style="endArrow=none;html=1;rounded=0;" parent="1" source="LDTHGyRp6urIsWSvvcYh-32" target="LDTHGyRp6urIsWSvvcYh-15" edge="1">
          <mxGeometry relative="1" as="geometry">
            <mxPoint x="200" y="998" as="sourcePoint" />
            <mxPoint x="360" y="998" as="targetPoint" />
          </mxGeometry>
        </mxCell>
        <mxCell id="LDTHGyRp6urIsWSvvcYh-41" value="E/M" style="shape=rhombus;perimeter=rhombusPerimeter;whiteSpace=wrap;html=1;align=center;" parent="1" vertex="1">
          <mxGeometry x="160" y="903" width="90" height="40" as="geometry" />
        </mxCell>
        <mxCell id="PlO8rXUwm7PUKWGBvLu5-2" value="N" style="text;html=1;align=center;verticalAlign=middle;resizable=0;points=[];autosize=1;strokeColor=none;fillColor=none;" parent="1" vertex="1">
          <mxGeometry x="415" y="923" width="30" height="30" as="geometry" />
        </mxCell>
        <mxCell id="PlO8rXUwm7PUKWGBvLu5-4" value="N" style="text;html=1;align=center;verticalAlign=middle;resizable=0;points=[];autosize=1;strokeColor=none;fillColor=none;" parent="1" vertex="1">
          <mxGeometry x="627.5" y="923" width="30" height="30" as="geometry" />
        </mxCell>
        <mxCell id="vedIUutLPuAstkfbNLmz-2" value="1" style="endArrow=open;html=1;endSize=12;startArrow=diamondThin;startSize=14;startFill=0;edgeStyle=orthogonalEdgeStyle;align=left;verticalAlign=bottom;rounded=0;entryX=1;entryY=0.25;entryDx=0;entryDy=0;exitX=0.019;exitY=0.344;exitDx=0;exitDy=0;exitPerimeter=0;" parent="1" source="LDTHGyRp6urIsWSvvcYh-7" target="LDTHGyRp6urIsWSvvcYh-8" edge="1">
          <mxGeometry x="-1" y="3" relative="1" as="geometry">
            <mxPoint x="330" y="330" as="sourcePoint" />
            <mxPoint x="490" y="330" as="targetPoint" />
          </mxGeometry>
        </mxCell>
        <mxCell id="vedIUutLPuAstkfbNLmz-3" value="M" style="endArrow=open;html=1;endSize=12;startArrow=diamondThin;startSize=14;startFill=0;edgeStyle=orthogonalEdgeStyle;align=left;verticalAlign=bottom;rounded=0;" parent="1" source="LDTHGyRp6urIsWSvvcYh-8" target="LDTHGyRp6urIsWSvvcYh-10" edge="1">
          <mxGeometry x="-1" y="3" relative="1" as="geometry">
            <mxPoint x="330" y="330" as="sourcePoint" />
            <mxPoint x="490" y="330" as="targetPoint" />
          </mxGeometry>
        </mxCell>
        <mxCell id="vedIUutLPuAstkfbNLmz-4" value="1" style="endArrow=open;html=1;endSize=12;startArrow=diamondThin;startSize=14;startFill=1;edgeStyle=orthogonalEdgeStyle;align=left;verticalAlign=bottom;rounded=0;" parent="1" source="LDTHGyRp6urIsWSvvcYh-10" target="LDTHGyRp6urIsWSvvcYh-7" edge="1">
          <mxGeometry x="-1" y="3" relative="1" as="geometry">
            <mxPoint x="330" y="480" as="sourcePoint" />
            <mxPoint x="490" y="480" as="targetPoint" />
          </mxGeometry>
        </mxCell>
        <mxCell id="tjoz6hgs5JiIY0Dugmjq-1" value="&lt;p style=&quot;margin:0px;margin-top:4px;text-align:center;&quot;&gt;&lt;b&gt;Farmacia&lt;/b&gt;&lt;/p&gt;&lt;hr size=&quot;1&quot; style=&quot;border-style:solid;&quot;&gt;&lt;p style=&quot;margin:0px;margin-left:4px;&quot;&gt;- nombre: string&lt;/p&gt;&lt;p style=&quot;margin:0px;margin-left:4px;&quot;&gt;- medicamentos: medicamentos&lt;/p&gt;&lt;p style=&quot;margin:0px;margin-left:4px;&quot;&gt;- inventario: inventario&lt;/p&gt;&lt;p style=&quot;margin:0px;margin-left:4px;&quot;&gt;- empleado: empleado&lt;/p&gt;&lt;hr size=&quot;1&quot; style=&quot;border-style:solid;&quot;&gt;&lt;p style=&quot;margin:0px;margin-left:4px;&quot;&gt;+ Farmacia(nombre: string, medicamentos: medicamentos, inventario: inventario, empleado: empleado)&lt;/p&gt;&lt;p style=&quot;margin:0px;margin-left:4px;&quot;&gt;+ getNombre(): string&lt;/p&gt;&lt;p style=&quot;margin:0px;margin-left:4px;&quot;&gt;+ setNombre(nombre: string): void&lt;/p&gt;&lt;p style=&quot;margin:0px;margin-left:4px;&quot;&gt;+ getMedicamentos(): medicamentos&lt;/p&gt;&lt;p style=&quot;margin:0px;margin-left:4px;&quot;&gt;+ getInventario(): inventario&lt;/p&gt;&lt;p style=&quot;margin:0px;margin-left:4px;&quot;&gt;+ getEmpleado(): empleado&lt;/p&gt;" style="verticalAlign=top;align=left;overflow=fill;html=1;whiteSpace=wrap;" parent="1" vertex="1">
          <mxGeometry x="120" y="1910" width="180" height="270" as="geometry" />
        </mxCell>
        <mxCell id="tjoz6hgs5JiIY0Dugmjq-2" value="&lt;p style=&quot;margin:0px;margin-top:4px;text-align:center;&quot;&gt;&lt;b&gt;Medicamentos&lt;/b&gt;&lt;/p&gt;&lt;hr size=&quot;1&quot; style=&quot;border-style:solid;&quot;&gt;&lt;p style=&quot;margin:0px;margin-left:4px;&quot;&gt;- nombre: string&lt;/p&gt;&lt;p style=&quot;margin:0px;margin-left:4px;&quot;&gt;- precio: int&lt;/p&gt;&lt;p style=&quot;margin:0px;margin-left:4px;&quot;&gt;- id_medicamentos: int&lt;/p&gt;&lt;p style=&quot;margin:0px;margin-left:4px;&quot;&gt;- dosis: string&lt;/p&gt;&lt;hr size=&quot;1&quot; style=&quot;border-style:solid;&quot;&gt;&lt;p style=&quot;margin:0px;margin-left:4px;&quot;&gt;+ Medicamentos(nombre: string, precio: int, id_medicamentos: int, dosis: string)&lt;/p&gt;&lt;p style=&quot;margin:0px;margin-left:4px;&quot;&gt;+ getNombre(): string&lt;/p&gt;&lt;p style=&quot;margin:0px;margin-left:4px;&quot;&gt;+ setNombre(nombre: string): void&lt;/p&gt;&lt;p style=&quot;margin:0px;margin-left:4px;&quot;&gt;+ getPrecio(): precio&lt;/p&gt;&lt;p style=&quot;margin:0px;margin-left:4px;&quot;&gt;+ setPrecio(precio: int): void&lt;/p&gt;&lt;p style=&quot;margin:0px;margin-left:4px;&quot;&gt;+ getId_medicamentos():int&lt;/p&gt;&lt;p style=&quot;margin:0px;margin-left:4px;&quot;&gt;+ setId_medicamentos(id_meciamentos: int):void&lt;br&gt;&lt;/p&gt;&lt;p style=&quot;margin:0px;margin-left:4px;&quot;&gt;+ getDosis(): string&lt;/p&gt;&lt;p style=&quot;margin:0px;margin-left:4px;&quot;&gt;+ setDosis(dosis: string):void&lt;br&gt;&lt;/p&gt;" style="verticalAlign=top;align=left;overflow=fill;html=1;whiteSpace=wrap;" parent="1" vertex="1">
          <mxGeometry x="537.5" y="1860" width="230" height="270" as="geometry" />
        </mxCell>
        <mxCell id="tjoz6hgs5JiIY0Dugmjq-3" value="&lt;p style=&quot;margin:0px;margin-top:4px;text-align:center;&quot;&gt;&lt;b&gt;Empleado&lt;/b&gt;&lt;/p&gt;&lt;hr size=&quot;1&quot; style=&quot;border-style:solid;&quot;&gt;&lt;p style=&quot;margin:0px;margin-left:4px;&quot;&gt;- nombre: string&lt;/p&gt;&lt;p style=&quot;margin:0px;margin-left:4px;&quot;&gt;- apellido: string&lt;/p&gt;&lt;p style=&quot;margin:0px;margin-left:4px;&quot;&gt;- id_empleado: int&lt;/p&gt;&lt;p style=&quot;margin:0px;margin-left:4px;&quot;&gt;- sueldo: float&lt;/p&gt;&lt;p style=&quot;margin:0px;margin-left:4px;&quot;&gt;- cargo: string&lt;/p&gt;&lt;hr size=&quot;1&quot; style=&quot;border-style:solid;&quot;&gt;&lt;p style=&quot;margin:0px;margin-left:4px;&quot;&gt;+ Empleado(nombre: string, apellido:&amp;nbsp;&lt;span style=&quot;background-color: initial;&quot;&gt;String,id_empleado: int, sueldo: float, cargo: string)&lt;/span&gt;&lt;/p&gt;&lt;p style=&quot;margin:0px;margin-left:4px;&quot;&gt;&lt;span style=&quot;background-color: initial;&quot;&gt;+ getNombre():string&lt;/span&gt;&lt;/p&gt;&lt;p style=&quot;margin:0px;margin-left:4px;&quot;&gt;&lt;span style=&quot;background-color: initial;&quot;&gt;+ getApellido():string&lt;/span&gt;&lt;/p&gt;&lt;p style=&quot;margin:0px;margin-left:4px;&quot;&gt;&lt;span style=&quot;background-color: initial;&quot;&gt;+ getId_empleado():int&lt;/span&gt;&lt;/p&gt;&lt;p style=&quot;margin:0px;margin-left:4px;&quot;&gt;&lt;span style=&quot;background-color: initial;&quot;&gt;+ getSueldo(): float&lt;/span&gt;&lt;/p&gt;&lt;p style=&quot;margin:0px;margin-left:4px;&quot;&gt;&lt;span style=&quot;background-color: initial;&quot;&gt;+ getCargo(): string&lt;/span&gt;&lt;/p&gt;&lt;p style=&quot;margin:0px;margin-left:4px;&quot;&gt;+ setNombre(nombre: string):void&lt;/p&gt;&lt;p style=&quot;margin:0px;margin-left:4px;&quot;&gt;+&amp;nbsp;&lt;span style=&quot;background-color: initial;&quot;&gt;setApellido(apellido: string):void&lt;/span&gt;&lt;/p&gt;&lt;p style=&quot;margin:0px;margin-left:4px;&quot;&gt;&lt;span style=&quot;background-color: initial;&quot;&gt;+ setId_empleado(id_empleado: int):void&lt;/span&gt;&lt;/p&gt;&lt;p style=&quot;margin:0px;margin-left:4px;&quot;&gt;&lt;span style=&quot;background-color: initial;&quot;&gt;+ setSueldo(sueldo: float): void&lt;/span&gt;&lt;/p&gt;&lt;p style=&quot;margin:0px;margin-left:4px;&quot;&gt;&lt;span style=&quot;background-color: initial;&quot;&gt;+ setCargo(cargo: string): void&lt;/span&gt;&lt;/p&gt;" style="verticalAlign=top;align=left;overflow=fill;html=1;whiteSpace=wrap;" parent="1" vertex="1">
          <mxGeometry x="127.5" y="2270" width="190" height="320" as="geometry" />
        </mxCell>
        <mxCell id="tjoz6hgs5JiIY0Dugmjq-4" value="&lt;p style=&quot;margin:0px;margin-top:4px;text-align:center;&quot;&gt;&lt;b&gt;Inventario&lt;/b&gt;&lt;/p&gt;&lt;hr size=&quot;1&quot; style=&quot;border-style:solid;&quot;&gt;&lt;p style=&quot;margin:0px;margin-left:4px;&quot;&gt;- medicamento: medicamento&lt;/p&gt;&lt;p style=&quot;margin:0px;margin-left:4px;&quot;&gt;- stock: int&lt;/p&gt;&lt;hr size=&quot;1&quot; style=&quot;border-style:solid;&quot;&gt;&lt;p style=&quot;margin:0px;margin-left:4px;&quot;&gt;+ Inventario(medicamento: medicamento, stock: int)&lt;/p&gt;&lt;p style=&quot;margin:0px;margin-left:4px;&quot;&gt;+ getStock(): int&lt;/p&gt;&lt;p style=&quot;margin:0px;margin-left:4px;&quot;&gt;+ setStock(stock: int): void&lt;/p&gt;&lt;p style=&quot;margin:0px;margin-left:4px;&quot;&gt;+ getMedicamento(): medicamento&lt;/p&gt;&lt;p style=&quot;margin:0px;margin-left:4px;&quot;&gt;+ setMedicamento(medicamento: medicamento): void&lt;/p&gt;" style="verticalAlign=top;align=left;overflow=fill;html=1;whiteSpace=wrap;" parent="1" vertex="1">
          <mxGeometry x="412.5" y="2220" width="195" height="180" as="geometry" />
        </mxCell>
        <mxCell id="tjoz6hgs5JiIY0Dugmjq-8" value="" style="endArrow=open;html=1;endSize=12;startArrow=diamondThin;startSize=14;startFill=0;edgeStyle=orthogonalEdgeStyle;align=left;verticalAlign=bottom;rounded=0;" parent="1" source="tjoz6hgs5JiIY0Dugmjq-3" target="tjoz6hgs5JiIY0Dugmjq-1" edge="1">
          <mxGeometry x="-1" y="3" relative="1" as="geometry">
            <mxPoint x="297.5" y="2260" as="sourcePoint" />
            <mxPoint x="477.5" y="2290" as="targetPoint" />
          </mxGeometry>
        </mxCell>
        <mxCell id="tjoz6hgs5JiIY0Dugmjq-10" value="1" style="endArrow=open;html=1;endSize=12;startArrow=diamondThin;startSize=14;startFill=1;edgeStyle=orthogonalEdgeStyle;align=left;verticalAlign=bottom;rounded=0;exitX=1.011;exitY=0.364;exitDx=0;exitDy=0;exitPerimeter=0;" parent="1" source="tjoz6hgs5JiIY0Dugmjq-1" target="tjoz6hgs5JiIY0Dugmjq-2" edge="1">
          <mxGeometry x="-1" y="3" relative="1" as="geometry">
            <mxPoint x="317.5" y="2100" as="sourcePoint" />
            <mxPoint x="477.5" y="2100" as="targetPoint" />
          </mxGeometry>
        </mxCell>
        <mxCell id="tjoz6hgs5JiIY0Dugmjq-11" value="1" style="endArrow=open;html=1;endSize=12;startArrow=diamondThin;startSize=14;startFill=1;edgeStyle=orthogonalEdgeStyle;align=left;verticalAlign=bottom;rounded=0;exitX=1.016;exitY=0.706;exitDx=0;exitDy=0;exitPerimeter=0;" parent="1" source="tjoz6hgs5JiIY0Dugmjq-1" target="tjoz6hgs5JiIY0Dugmjq-4" edge="1">
          <mxGeometry x="-1" y="3" relative="1" as="geometry">
            <mxPoint x="317.5" y="2230" as="sourcePoint" />
            <mxPoint x="477.5" y="2230" as="targetPoint" />
          </mxGeometry>
        </mxCell>
        <mxCell id="tjoz6hgs5JiIY0Dugmjq-14" value="&lt;b&gt;&lt;u&gt;&lt;i&gt;&lt;font style=&quot;font-size: 14px;&quot;&gt;DIAGRAMA DE CLASE - FARMACIA&lt;/font&gt;&lt;/i&gt;&lt;/u&gt;&lt;/b&gt;" style="text;html=1;align=center;verticalAlign=middle;resizable=0;points=[];autosize=1;strokeColor=none;fillColor=none;" parent="1" vertex="1">
          <mxGeometry x="290" y="1780" width="260" height="30" as="geometry" />
        </mxCell>
        <mxCell id="tjoz6hgs5JiIY0Dugmjq-15" value="1" style="text;html=1;align=center;verticalAlign=middle;resizable=0;points=[];autosize=1;strokeColor=none;fillColor=none;" parent="1" vertex="1">
          <mxGeometry x="220" y="2240" width="30" height="30" as="geometry" />
        </mxCell>
        <mxCell id="SQjgDn281MHqjkNJKqny-1" value="Estudiante (&lt;font color=&quot;#ff8000&quot;&gt;id_estudiante&lt;/font&gt;, nombreCompleto, fechaNacimiento, carrera, &lt;font color=&quot;#009900&quot;&gt;id_materia&lt;/font&gt;)" style="text;html=1;align=center;verticalAlign=middle;whiteSpace=wrap;rounded=0;" vertex="1" parent="1">
          <mxGeometry x="43.75" y="1210" width="456.25" height="30" as="geometry" />
        </mxCell>
        <mxCell id="SQjgDn281MHqjkNJKqny-3" value="Materia (&lt;font color=&quot;#009900&quot;&gt;id_materia&lt;/font&gt;, nombre, numeroCreditos, &lt;font color=&quot;#ff8000&quot;&gt;id_estudiante, &lt;/font&gt;&lt;font color=&quot;#b5739d&quot;&gt;id_nota&lt;/font&gt;)" style="text;html=1;align=center;verticalAlign=middle;whiteSpace=wrap;rounded=0;" vertex="1" parent="1">
          <mxGeometry x="370" y="1330" width="390" height="30" as="geometry" />
        </mxCell>
        <mxCell id="SQjgDn281MHqjkNJKqny-4" value="Notas (&lt;font color=&quot;#b5739d&quot;&gt;id_nota&lt;/font&gt;, puntaje, &lt;font color=&quot;#009900&quot;&gt;id_materia&lt;/font&gt;)" style="text;html=1;align=center;verticalAlign=middle;whiteSpace=wrap;rounded=0;" vertex="1" parent="1">
          <mxGeometry x="100" y="1420" width="380" height="30" as="geometry" />
        </mxCell>
        <mxCell id="SQjgDn281MHqjkNJKqny-5" value="NumeroCreditos" style="ellipse;whiteSpace=wrap;html=1;align=center;" vertex="1" parent="1">
          <mxGeometry x="220" y="858" width="100" height="30" as="geometry" />
        </mxCell>
        <mxCell id="SQjgDn281MHqjkNJKqny-6" value="" style="endArrow=none;html=1;rounded=0;" edge="1" parent="1" source="LDTHGyRp6urIsWSvvcYh-23" target="SQjgDn281MHqjkNJKqny-5">
          <mxGeometry relative="1" as="geometry">
            <mxPoint x="470" y="1043" as="sourcePoint" />
            <mxPoint x="630" y="1043" as="targetPoint" />
          </mxGeometry>
        </mxCell>
        <mxCell id="SQjgDn281MHqjkNJKqny-7" value="" style="endArrow=none;html=1;rounded=0;shape=link;" edge="1" parent="1" source="LDTHGyRp6urIsWSvvcYh-41" target="LDTHGyRp6urIsWSvvcYh-15">
          <mxGeometry relative="1" as="geometry">
            <mxPoint x="330" y="1040" as="sourcePoint" />
            <mxPoint x="490" y="1040" as="targetPoint" />
          </mxGeometry>
        </mxCell>
        <mxCell id="SQjgDn281MHqjkNJKqny-8" value="" style="endArrow=none;html=1;rounded=0;shape=link;" edge="1" parent="1" source="LDTHGyRp6urIsWSvvcYh-23" target="LDTHGyRp6urIsWSvvcYh-41">
          <mxGeometry relative="1" as="geometry">
            <mxPoint x="170" y="933" as="sourcePoint" />
            <mxPoint x="105" y="933" as="targetPoint" />
          </mxGeometry>
        </mxCell>
        <mxCell id="SQjgDn281MHqjkNJKqny-9" value="M/N" style="shape=rhombus;perimeter=rhombusPerimeter;whiteSpace=wrap;html=1;align=center;" vertex="1" parent="1">
          <mxGeometry x="490" y="903" width="90" height="40" as="geometry" />
        </mxCell>
        <mxCell id="SQjgDn281MHqjkNJKqny-10" value="" style="endArrow=none;html=1;rounded=0;shape=link;" edge="1" parent="1" source="SQjgDn281MHqjkNJKqny-9" target="LDTHGyRp6urIsWSvvcYh-23">
          <mxGeometry relative="1" as="geometry">
            <mxPoint x="325" y="933" as="sourcePoint" />
            <mxPoint x="260" y="933" as="targetPoint" />
          </mxGeometry>
        </mxCell>
        <mxCell id="SQjgDn281MHqjkNJKqny-12" value="" style="endArrow=none;html=1;rounded=0;shape=link;" edge="1" parent="1" target="SQjgDn281MHqjkNJKqny-9">
          <mxGeometry relative="1" as="geometry">
            <mxPoint x="658" y="923" as="sourcePoint" />
            <mxPoint x="560" y="923" as="targetPoint" />
          </mxGeometry>
        </mxCell>
        <mxCell id="SQjgDn281MHqjkNJKqny-13" value="N" style="text;html=1;align=center;verticalAlign=middle;resizable=0;points=[];autosize=1;strokeColor=none;fillColor=none;" vertex="1" parent="1">
          <mxGeometry x="95" y="923" width="30" height="30" as="geometry" />
        </mxCell>
        <mxCell id="SQjgDn281MHqjkNJKqny-14" value="N" style="text;html=1;align=center;verticalAlign=middle;resizable=0;points=[];autosize=1;strokeColor=none;fillColor=none;" vertex="1" parent="1">
          <mxGeometry x="285" y="923" width="30" height="30" as="geometry" />
        </mxCell>
        <mxCell id="SQjgDn281MHqjkNJKqny-15" value="" style="endArrow=classic;html=1;rounded=0;exitX=0.266;exitY=0.967;exitDx=0;exitDy=0;exitPerimeter=0;entryX=0.779;entryY=-0.167;entryDx=0;entryDy=0;entryPerimeter=0;edgeStyle=orthogonalEdgeStyle;curved=1;" edge="1" parent="1" source="SQjgDn281MHqjkNJKqny-1" target="SQjgDn281MHqjkNJKqny-3">
          <mxGeometry width="50" height="50" relative="1" as="geometry">
            <mxPoint x="680" y="1250" as="sourcePoint" />
            <mxPoint x="720" y="1310" as="targetPoint" />
            <Array as="points">
              <mxPoint x="165" y="1290" />
              <mxPoint x="674" y="1290" />
            </Array>
          </mxGeometry>
        </mxCell>
        <mxCell id="SQjgDn281MHqjkNJKqny-16" value="" style="endArrow=classic;html=1;rounded=0;entryX=0.663;entryY=-0.1;entryDx=0;entryDy=0;entryPerimeter=0;exitX=0.25;exitY=1;exitDx=0;exitDy=0;edgeStyle=orthogonalEdgeStyle;curved=1;" edge="1" parent="1" source="SQjgDn281MHqjkNJKqny-3" target="SQjgDn281MHqjkNJKqny-4">
          <mxGeometry width="50" height="50" relative="1" as="geometry">
            <mxPoint x="390" y="1300" as="sourcePoint" />
            <mxPoint x="440" y="1250" as="targetPoint" />
          </mxGeometry>
        </mxCell>
        <mxCell id="SQjgDn281MHqjkNJKqny-17" value="" style="endArrow=classic;html=1;rounded=0;entryX=0.91;entryY=1.067;entryDx=0;entryDy=0;entryPerimeter=0;exitX=0.25;exitY=0;exitDx=0;exitDy=0;edgeStyle=orthogonalEdgeStyle;curved=1;" edge="1" parent="1" source="SQjgDn281MHqjkNJKqny-3" target="SQjgDn281MHqjkNJKqny-1">
          <mxGeometry width="50" height="50" relative="1" as="geometry">
            <mxPoint x="390" y="1300" as="sourcePoint" />
            <mxPoint x="440" y="1250" as="targetPoint" />
          </mxGeometry>
        </mxCell>
        <mxCell id="SQjgDn281MHqjkNJKqny-18" value="" style="endArrow=classic;html=1;rounded=0;exitX=0.395;exitY=0.033;exitDx=0;exitDy=0;exitPerimeter=0;entryX=0.926;entryY=1.067;entryDx=0;entryDy=0;entryPerimeter=0;edgeStyle=orthogonalEdgeStyle;curved=1;" edge="1" parent="1" source="SQjgDn281MHqjkNJKqny-4" target="SQjgDn281MHqjkNJKqny-3">
          <mxGeometry width="50" height="50" relative="1" as="geometry">
            <mxPoint x="390" y="1300" as="sourcePoint" />
            <mxPoint x="440" y="1250" as="targetPoint" />
            <Array as="points">
              <mxPoint x="250" y="1380" />
              <mxPoint x="731" y="1380" />
            </Array>
          </mxGeometry>
        </mxCell>
        <mxCell id="SQjgDn281MHqjkNJKqny-20" value="&lt;font style=&quot;font-size: 18px;&quot;&gt;&lt;b&gt;&lt;i&gt;&lt;u&gt;MAPEO - ESCUELITA&lt;/u&gt;&lt;/i&gt;&lt;/b&gt;&lt;/font&gt;" style="text;html=1;align=center;verticalAlign=middle;resizable=0;points=[];autosize=1;strokeColor=none;fillColor=none;" vertex="1" parent="1">
          <mxGeometry x="265" y="1133" width="210" height="40" as="geometry" />
        </mxCell>
        <mxCell id="SQjgDn281MHqjkNJKqny-23" value="carrera" style="ellipse;whiteSpace=wrap;html=1;align=center;" vertex="1" parent="1">
          <mxGeometry x="-100" y="920" width="70" height="23" as="geometry" />
        </mxCell>
        <mxCell id="SQjgDn281MHqjkNJKqny-24" value="" style="endArrow=none;html=1;rounded=0;" edge="1" parent="1" source="LDTHGyRp6urIsWSvvcYh-15" target="SQjgDn281MHqjkNJKqny-23">
          <mxGeometry relative="1" as="geometry">
            <mxPoint x="330" y="890" as="sourcePoint" />
            <mxPoint x="490" y="890" as="targetPoint" />
          </mxGeometry>
        </mxCell>
      </root>
    </mxGraphModel>
  </diagram>
</mxfile>
